<mxfile host="app.diagrams.net" modified="2020-06-28T13:12:49.458Z" agent="5.0 (X11; Linux x86_64) AppleWebKit/537.36 (KHTML, like Gecko) Chrome/83.0.4103.61 Safari/537.36" etag="Y36N1-CCG8mh3CO5X5Sr" version="13.3.5" type="github">
  <diagram id="u5629rRHl2031ISN3QRp" name="Page-1">
    <mxGraphModel dx="683" dy="1602" grid="1" gridSize="10" guides="1" tooltips="1" connect="1" arrows="1" fold="1" page="1" pageScale="1" pageWidth="827" pageHeight="1169" math="0" shadow="0">
      <root>
        <mxCell id="0" />
        <mxCell id="1" parent="0" />
        <mxCell id="-GqsJhX0N5BKIa7864he-2" value="&lt;p style=&quot;margin: 4px 0px 0px; text-align: center; font-size: 14px;&quot;&gt;&lt;b style=&quot;font-size: 14px;&quot;&gt;&lt;font style=&quot;font-size: 14px;&quot;&gt;Category&lt;/font&gt;&lt;/b&gt;&lt;/p&gt;&lt;hr style=&quot;font-size: 14px;&quot;&gt;&lt;p style=&quot;margin: 0px 0px 0px 4px; font-size: 14px;&quot;&gt;&lt;span style=&quot;font-size: 14px;&quot;&gt;- title: string&lt;/span&gt;&lt;br style=&quot;font-size: 14px;&quot;&gt;&lt;/p&gt;&lt;p style=&quot;margin: 0px 0px 0px 4px; font-size: 14px;&quot;&gt;&lt;font style=&quot;font-size: 14px;&quot;&gt;- description: string&lt;br style=&quot;font-size: 14px;&quot;&gt;&lt;/font&gt;&lt;/p&gt;&lt;p style=&quot;margin: 0px 0px 0px 4px; font-size: 14px;&quot;&gt;&lt;font style=&quot;font-size: 14px;&quot;&gt;- image_url: string&lt;/font&gt;&lt;/p&gt;" style="verticalAlign=top;align=left;overflow=fill;fontSize=14;fontFamily=Helvetica;html=1;fillColor=#f5f5f5;strokeColor=#666666;fontColor=#333333;" parent="1" vertex="1">
          <mxGeometry x="360" y="-540" width="160" height="90" as="geometry" />
        </mxCell>
        <mxCell id="-GqsJhX0N5BKIa7864he-3" value="&lt;p style=&quot;margin: 4px 0px 0px; text-align: center; font-size: 14px;&quot;&gt;&lt;b style=&quot;font-size: 14px;&quot;&gt;&lt;font style=&quot;font-size: 14px;&quot;&gt;Adventure&lt;/font&gt;&lt;/b&gt;&lt;/p&gt;&lt;hr style=&quot;font-size: 14px;&quot;&gt;&lt;p style=&quot;margin: 0px 0px 0px 4px; font-size: 14px;&quot;&gt;&lt;span style=&quot;font-size: 14px;&quot;&gt;- title: string&lt;/span&gt;&lt;br style=&quot;font-size: 14px;&quot;&gt;&lt;/p&gt;&lt;p style=&quot;margin: 0px 0px 0px 4px; font-size: 14px;&quot;&gt;&lt;font style=&quot;font-size: 14px;&quot;&gt;- description: string&lt;br style=&quot;font-size: 14px;&quot;&gt;&lt;/font&gt;&lt;/p&gt;&lt;p style=&quot;margin: 0px 0px 0px 4px; font-size: 14px;&quot;&gt;&lt;font style=&quot;font-size: 14px;&quot;&gt;- location: string&lt;/font&gt;&lt;/p&gt;&lt;p style=&quot;margin: 0px 0px 0px 4px; font-size: 14px;&quot;&gt;&lt;font style=&quot;font-size: 14px;&quot;&gt;- participants: Integer&lt;br style=&quot;font-size: 14px;&quot;&gt;&lt;/font&gt;&lt;/p&gt;&lt;p style=&quot;margin: 0px 0px 0px 4px; font-size: 14px;&quot;&gt;&lt;font style=&quot;font-size: 14px;&quot;&gt;- price: Integer&lt;/font&gt;&lt;/p&gt;&lt;p style=&quot;margin: 0px 0px 0px 4px; font-size: 14px;&quot;&gt;&lt;font style=&quot;font-size: 14px;&quot;&gt;- image_url: string&lt;/font&gt;&lt;/p&gt;" style="verticalAlign=top;align=left;overflow=fill;fontSize=14;fontFamily=Helvetica;html=1;fillColor=#f5f5f5;strokeColor=#666666;fontColor=#333333;" parent="1" vertex="1">
          <mxGeometry x="360" y="-800" width="160" height="140" as="geometry" />
        </mxCell>
        <mxCell id="-GqsJhX0N5BKIa7864he-4" value="&lt;p style=&quot;margin: 4px 0px 0px ; text-align: center ; font-size: 14px&quot;&gt;&lt;b style=&quot;font-size: 14px&quot;&gt;&lt;font style=&quot;font-size: 14px&quot;&gt;Comments&lt;/font&gt;&lt;/b&gt;&lt;/p&gt;&lt;hr style=&quot;font-size: 14px&quot;&gt;&lt;p style=&quot;margin: 0px 0px 0px 4px ; font-size: 14px&quot;&gt;&lt;br&gt;&lt;/p&gt;" style="verticalAlign=top;align=left;overflow=fill;fontSize=14;fontFamily=Helvetica;html=1;fillColor=#ffe6cc;strokeColor=#d79b00;" parent="1" vertex="1">
          <mxGeometry x="110" y="-775" width="164" height="55" as="geometry" />
        </mxCell>
        <mxCell id="-GqsJhX0N5BKIa7864he-5" value="&lt;p style=&quot;margin: 4px 0px 0px ; text-align: center ; font-size: 14px&quot;&gt;&lt;b style=&quot;font-size: 14px&quot;&gt;&lt;font style=&quot;font-size: 14px&quot;&gt;Session&lt;/font&gt;&lt;/b&gt;&lt;/p&gt;&lt;hr style=&quot;font-size: 14px&quot;&gt;&lt;p style=&quot;margin: 0px 0px 0px 4px ; font-size: 14px&quot;&gt;&lt;/p&gt;&lt;span style=&quot;font-size: 14px&quot;&gt;&amp;nbsp;&lt;br&gt;&lt;br style=&quot;font-size: 14px&quot;&gt;&lt;/span&gt;" style="verticalAlign=top;align=left;overflow=fill;fontSize=14;fontFamily=Helvetica;html=1;fillColor=#ffe6cc;strokeColor=#d79b00;" parent="1" vertex="1">
          <mxGeometry x="360" y="-950" width="140" height="50" as="geometry" />
        </mxCell>
        <mxCell id="-GqsJhX0N5BKIa7864he-6" value="" style="endArrow=none;html=1;endSize=12;startArrow=none;startSize=14;startFill=0;edgeStyle=orthogonalEdgeStyle;exitX=0;exitY=0.5;exitDx=0;exitDy=0;entryX=1;entryY=0.5;entryDx=0;entryDy=0;endFill=0;fontSize=14;" parent="1" source="-GqsJhX0N5BKIa7864he-3" target="-GqsJhX0N5BKIa7864he-4" edge="1">
          <mxGeometry relative="1" as="geometry">
            <mxPoint x="150" y="-810" as="sourcePoint" />
            <mxPoint x="400" y="-810" as="targetPoint" />
          </mxGeometry>
        </mxCell>
        <mxCell id="-GqsJhX0N5BKIa7864he-12" value="" style="endArrow=none;html=1;endSize=12;startArrow=none;startSize=14;startFill=0;edgeStyle=orthogonalEdgeStyle;endFill=0;fontSize=14;exitX=0.5;exitY=1;exitDx=0;exitDy=0;" parent="1" source="-GqsJhX0N5BKIa7864he-5" edge="1">
          <mxGeometry relative="1" as="geometry">
            <mxPoint x="430" y="-870" as="sourcePoint" />
            <mxPoint x="430" y="-800" as="targetPoint" />
            <Array as="points" />
          </mxGeometry>
        </mxCell>
        <mxCell id="-GqsJhX0N5BKIa7864he-13" value="1..n" style="resizable=0;html=1;align=left;verticalAlign=top;labelBackgroundColor=#ffffff;fontSize=14;" parent="-GqsJhX0N5BKIa7864he-12" connectable="0" vertex="1">
          <mxGeometry x="-1" relative="1" as="geometry">
            <mxPoint x="-150" y="140" as="offset" />
          </mxGeometry>
        </mxCell>
        <mxCell id="-GqsJhX0N5BKIa7864he-14" value="1" style="resizable=0;html=1;align=right;verticalAlign=top;labelBackgroundColor=#ffffff;fontSize=14;" parent="-GqsJhX0N5BKIa7864he-12" connectable="0" vertex="1">
          <mxGeometry x="1" relative="1" as="geometry">
            <mxPoint x="-70" y="40" as="offset" />
          </mxGeometry>
        </mxCell>
        <mxCell id="-GqsJhX0N5BKIa7864he-15" value="" style="endArrow=none;html=1;endSize=12;startArrow=none;startSize=14;startFill=0;edgeStyle=orthogonalEdgeStyle;exitX=0.5;exitY=1;exitDx=0;exitDy=0;endFill=0;fontSize=14;" parent="1" source="-GqsJhX0N5BKIa7864he-3" edge="1">
          <mxGeometry x="-0.0029" y="-20" relative="1" as="geometry">
            <mxPoint x="439.5" y="-640" as="sourcePoint" />
            <mxPoint x="440" y="-540" as="targetPoint" />
            <Array as="points" />
            <mxPoint as="offset" />
          </mxGeometry>
        </mxCell>
        <mxCell id="-GqsJhX0N5BKIa7864he-16" value="1..n" style="resizable=0;html=1;align=left;verticalAlign=top;labelBackgroundColor=#ffffff;fontSize=14;" parent="-GqsJhX0N5BKIa7864he-15" connectable="0" vertex="1">
          <mxGeometry x="-1" relative="1" as="geometry">
            <mxPoint x="-30" as="offset" />
          </mxGeometry>
        </mxCell>
        <mxCell id="-GqsJhX0N5BKIa7864he-17" value="1" style="resizable=0;html=1;align=right;verticalAlign=top;labelBackgroundColor=#ffffff;fontSize=14;" parent="-GqsJhX0N5BKIa7864he-15" connectable="0" vertex="1">
          <mxGeometry x="1" relative="1" as="geometry">
            <mxPoint x="-10" y="-30" as="offset" />
          </mxGeometry>
        </mxCell>
        <mxCell id="-GqsJhX0N5BKIa7864he-18" value="" style="endArrow=none;html=1;exitX=0;exitY=0.5;exitDx=0;exitDy=0;entryX=0.5;entryY=1;entryDx=0;entryDy=0;fontSize=14;" parent="1" source="-GqsJhX0N5BKIa7864he-4" target="-GqsJhX0N5BKIa7864he-4" edge="1">
          <mxGeometry width="50" height="50" relative="1" as="geometry">
            <mxPoint x="240" y="-500" as="sourcePoint" />
            <mxPoint x="290" y="-550" as="targetPoint" />
            <Array as="points">
              <mxPoint x="90" y="-747" />
              <mxPoint x="90" y="-690" />
              <mxPoint x="192" y="-690" />
            </Array>
          </mxGeometry>
        </mxCell>
        <mxCell id="-GqsJhX0N5BKIa7864he-19" value="1" style="resizable=0;html=1;align=right;verticalAlign=top;labelBackgroundColor=#ffffff;fontSize=14;" parent="1" connectable="0" vertex="1">
          <mxGeometry x="104" y="-760" as="geometry" />
        </mxCell>
        <mxCell id="-GqsJhX0N5BKIa7864he-20" value="0..n" style="resizable=0;html=1;align=left;verticalAlign=top;labelBackgroundColor=#ffffff;fontSize=14;" parent="1" connectable="0" vertex="1">
          <mxGeometry x="192" y="-710" as="geometry" />
        </mxCell>
        <mxCell id="-GqsJhX0N5BKIa7864he-31" value="1" style="resizable=0;html=1;align=right;verticalAlign=top;labelBackgroundColor=#ffffff;fontSize=14;" parent="1" connectable="0" vertex="1">
          <mxGeometry x="450" y="-830" as="geometry" />
        </mxCell>
        <mxCell id="-GqsJhX0N5BKIa7864he-32" value="1..n" style="resizable=0;html=1;align=left;verticalAlign=top;labelBackgroundColor=#ffffff;fontSize=14;" parent="1" connectable="0" vertex="1">
          <mxGeometry x="430" y="-900" as="geometry" />
        </mxCell>
        <mxCell id="goqPtRDtVBOSzmLMqdgX-1" value="La classe mère de session est définie dans le ms session" style="shape=note;whiteSpace=wrap;html=1;backgroundOutline=1;darkOpacity=0.05;fillColor=#fff2cc;strokeColor=#d6b656;" vertex="1" parent="1">
          <mxGeometry x="530" y="-978" width="108" height="106" as="geometry" />
        </mxCell>
        <mxCell id="goqPtRDtVBOSzmLMqdgX-2" value="La classe mère de comment est définie dans le ms comment" style="shape=note;whiteSpace=wrap;html=1;backgroundOutline=1;darkOpacity=0.05;fillColor=#fff2cc;strokeColor=#d6b656;" vertex="1" parent="1">
          <mxGeometry x="130" y="-890" width="108" height="106" as="geometry" />
        </mxCell>
      </root>
    </mxGraphModel>
  </diagram>
</mxfile>
